<?xml version="1.0" encoding="UTF-8" standalone="no"?>
<!-- Created with Inkscape (http://www.inkscape.org/) -->

<svg
   width="48"
   height="48"
   viewBox="0 0 12.7 12.7"
   version="1.1"
   id="svg6190"
   inkscape:version="1.2 (dc2aedaf03, 2022-05-15)"
   sodipodi:docname="icon_48.svg"
   xmlns:inkscape="http://www.inkscape.org/namespaces/inkscape"
   xmlns:sodipodi="http://sodipodi.sourceforge.net/DTD/sodipodi-0.dtd"
   xmlns="http://www.w3.org/2000/svg"
   xmlns:svg="http://www.w3.org/2000/svg">
  <sodipodi:namedview
     id="namedview6192"
     pagecolor="#505050"
     bordercolor="#eeeeee"
     borderopacity="1"
     inkscape:showpageshadow="0"
     inkscape:pageopacity="0"
     inkscape:pagecheckerboard="0"
     inkscape:deskcolor="#505050"
     inkscape:document-units="mm"
     showgrid="false"
     inkscape:zoom="12.500449"
     inkscape:cx="20.279272"
     inkscape:cy="21.639223"
     inkscape:window-width="1920"
     inkscape:window-height="1058"
     inkscape:window-x="-8"
     inkscape:window-y="-8"
     inkscape:window-maximized="1"
     inkscape:current-layer="layer1" />
  <defs
     id="defs6187" />
  <g
     inkscape:label="Calque 1"
     inkscape:groupmode="layer"
     id="layer1">
    <rect
       style="fill:#15102d;fill-opacity:0.987261;stroke:#ffffff;stroke-width:0.155626;stroke-linecap:square;stroke-dasharray:none"
       id="rect2879"
       width="12.536031"
       height="12.506097"
       x="0.10773731"
       y="0.13767053"
       ry="0.0046587219" />
    <path
       id="text186"
       style="font-size:3.54239px;line-height:1.25;font-family:sans-serif;word-spacing:0px;stroke:#ffffff;stroke-width:0.0689638;stroke-dasharray:none;stroke-opacity:1"
       d="M 4.4693328,4.281008 V 7.3412334 H 4.642795 V 6.6080545 L 4.7553928,6.3803581 5.1677472,7.3412323 h 0.228241 L 4.8832085,6.1602535 5.3609916,5.1447324 H 5.1418812 L 4.6427956,6.2437417 V 4.281008 Z m 3.8770422,0 V 7.3412334 H 8.5198372 V 6.6080545 L 8.6324376,6.3803581 9.0447912,7.3412323 H 9.2730319 L 8.7602507,6.1602535 9.2380345,5.1447324 H 9.0204451 L 8.5198372,6.2437417 V 4.281008 Z M 0.85552792,4.352353 c -0.0945648,0 -0.18279624,0.033525 -0.26323649,0.1017036 -0.0798278,0.068177 -0.1468147,0.1675109 -0.2008518,0.2960038 -0.0564928,0.1350462 -0.099862,0.2971528 -0.12933628,0.4872682 -0.0294742,0.1888045 -0.0441259,0.4019555 -0.0441259,0.6405827 0,0.2425599 0.0146636,0.4578509 0.0441259,0.6466547 0.0300896,0.1888046 0.0740713,0.3483575 0.12933628,0.4781604 0.0552649,0.1298029 0.12225191,0.2293413 0.2008518,0.2975219 0.0792124,0.068178 0.16683128,0.1017035 0.26323649,0.1017035 0.0128969,0 0.0260587,-4.136e-4 0.039562,-0.00304 0.0141336,-0.00131 0.0278547,-0.00538 0.0426037,-0.010634 0.005535,0.2333833 0.040516,0.4128027 0.10499128,0.5373609 0.065088,0.1258697 0.1518292,0.1882287 0.2586726,0.1882287 0.037457,0 0.073941,-0.00449 0.109555,-0.01366 0.036229,-0.00787 0.072711,-0.021326 0.1095549,-0.040989 V 7.7009863 h -0.025853 c -0.014752,0.013101 -0.039556,0.028287 -0.074561,0.04402 -0.034386,0.017037 -0.063076,0.02579 -0.088252,0.02579 -0.081056,0 -0.1381961,-0.041871 -0.1688982,-0.1244743 C 1.132203,7.5637279 1.1166709,7.4481833 1.1142123,7.2987142 1.2296535,7.2003801 1.3214624,7.0277873 1.3896213,6.7826046 1.4583958,6.5374216 1.4930892,6.2358364 1.4930892,5.8778952 1.4930892,5.6366455 1.477542,5.4213558 1.447441,5.2312405 1.4179677,5.0411259 1.3755054,4.8811582 1.319628,4.7500444 1.2649785,4.6228645 1.1973762,4.5237375 1.1187762,4.4555584 1.0407917,4.3860671 0.95378818,4.3523363 0.85553971,4.3523363 Z M 2.9522956,4.3933398 V 4.7773847 H 3.1470611 V 4.3933378 Z m 2.6399797,0.019738 V 7.3412334 H 6.4595882 V 6.9951365 H 5.7748677 V 4.4130714 Z M 0.85552792,4.6878301 c 0.13816088,0 0.24731868,0.1040234 0.32714438,0.3111836 0.079828,0.2058477 0.1202054,0.4986735 0.1202054,0.8789039 0,0.3841638 -0.040672,0.6789203 -0.1217277,0.8834577 C 1.10071,6.9646028 0.99184642,7.0664871 0.85552731,7.0664871 0.71920968,7.0664871 0.61095883,6.9646015 0.52990436,6.7613753 0.44884872,6.5568379 0.4081766,6.2620811 0.4081766,5.8779174 c 0,-0.3802306 0.0394737,-0.6730552 0.11868616,-0.878904 C 0.60669057,4.7918529 0.7161398,4.6878299 0.85552792,4.6878301 Z M 7.6646977,5.0840198 c -0.060791,0 -0.1203058,0.026701 -0.1780293,0.080451 -0.05772,0.053755 -0.1133388,0.1289447 -0.167376,0.2246586 V 5.1447368 H 7.1458302 v 2.1965011 h 0.1734622 v -1.639411 c 0.047282,-0.077358 0.096016,-0.1414411 0.147595,-0.1912631 0.051578,-0.049825 0.1018343,-0.07438 0.1491172,-0.07438 0.046053,0 0.083738,0.013453 0.1126005,0.040986 0.028856,0.026232 0.050076,0.066369 0.065429,0.1214367 0.014723,0.049825 0.02491,0.1203206 0.030434,0.2094811 0.00553,0.087848 0.00913,0.1813847 0.00913,0.2823418 v 1.250807 H 8.0055359 V 5.9158606 c 0,-0.2687825 -0.028384,-0.4748992 -0.086732,-0.6178134 C 7.8604702,5.1551315 7.775837,5.0840129 7.6646947,5.0840129 Z m -3.7537928,0.00911 c -0.1516702,0 -0.273984,0.102091 -0.3667062,0.3066298 -0.092106,0.2045374 -0.1384672,0.4877742 -0.1384672,0.8470266 0,0.1927378 0.011962,0.3597403 0.036518,0.5039656 0.024557,0.1442258 0.058642,0.2638386 0.1034679,0.3582407 0.044212,0.094403 0.097748,0.1653137 0.1597677,0.2125156 0.062019,0.045889 0.1311146,0.069826 0.2054157,0.069826 0.058336,0 0.1127535,-0.017302 0.1643343,-0.050092 0.052193,-0.03278 0.1066103,-0.079135 0.1643314,-0.1381365 V 6.7962825 h -0.00913 c -0.012896,0.022295 -0.029628,0.048985 -0.051735,0.080451 -0.022114,0.030156 -0.046339,0.05899 -0.071515,0.086522 -0.028856,0.031466 -0.061155,0.05775 -0.097384,0.077416 -0.036229,0.01968 -0.071513,0.028846 -0.1065134,0.028846 -0.1007044,0 -0.1799695,-0.070912 -0.2358498,-0.2125157 C 3.6121733,6.71409 3.585272,6.5116301 3.585272,6.2467802 3.585272,5.9740646 3.61398,5.7662227 3.670483,5.625931 3.727589,5.4843284 3.8050398,5.4134155 3.9032882,5.4134155 c 0.053422,0 0.1069317,0.024145 0.1628121,0.071345 0.056493,0.047201 0.1115253,0.1155624 0.1643314,0.2034066 h 0.00913 V 5.2767957 C 4.1922904,5.2256605 4.1399523,5.1816517 4.0828471,5.1462496 4.0263544,5.1108474 3.9698556,5.0931199 3.9109072,5.0931199 Z M 1.760881,5.1447388 v 1.4253728 c 0,0.2727157 0.029599,0.4807643 0.089775,0.6223673 0.060176,0.1402926 0.1445121,0.2094783 0.2525863,0.2094783 0.064476,0 0.123086,-0.024968 0.1765068,-0.077416 0.053421,-0.052445 0.1090398,-0.127844 0.1673761,-0.2261782 V 7.3412352 H 2.620587 V 5.1447342 H 2.4471245 v 1.6409242 c -0.046055,0.077357 -0.095695,0.1399224 -0.1491175,0.1897475 -0.052809,0.049822 -0.1012489,0.07438 -0.1460726,0.07438 -0.050353,0 -0.089238,-0.011721 -0.1156407,-0.037949 C 2.0098817,6.9856059 1.9889677,6.9435359 1.9723867,6.885847 1.9564267,6.829468 1.9453557,6.7611078 1.9404317,6.68244 1.9355117,6.602462 1.9343417,6.5069921 1.9343417,6.3955423 V 5.1447315 Z m 1.2020659,0 V 7.3412373 H 3.1364091 V 5.1447362 Z m 3.6670611,0 V 7.3412373 H 6.8034702 V 5.1447362 Z" />
    <rect
       style="fill:#ffff00;stroke:#ffffff;stroke-width:0;stroke-linecap:square;stroke-dasharray:none"
       id="rect1061"
       width="3.206934"
       height="3.256701"
       x="9.4118729"
       y="4.1287546"
       ry="0.0034185916" />
    <text
       xml:space="preserve"
       style="font-style:normal;font-variant:normal;font-weight:bold;font-stretch:condensed;font-size:2.58096px;line-height:1.25;font-family:Arial;-inkscape-font-specification:'Arial, Bold Condensed';font-variant-ligatures:normal;font-variant-caps:normal;font-variant-numeric:normal;font-variant-east-asian:normal;word-spacing:0px;stroke-width:0.778128"
       x="9.6241007"
       y="7.6859884"
       id="text1065"
       transform="scale(1.041677,0.95999051)"><tspan
         sodipodi:role="line"
         id="tspan1063"
         x="9.6241007"
         y="7.6859884"
         style="font-style:normal;font-variant:normal;font-weight:bold;font-stretch:condensed;font-size:2.58096px;font-family:Arial;-inkscape-font-specification:'Arial, Bold Condensed';font-variant-ligatures:normal;font-variant-caps:normal;font-variant-numeric:normal;font-variant-east-asian:normal;stroke-width:0.778128">JS</tspan></text>
    <path
       style="fill:#15102d;fill-opacity:0.987261;stroke-width:0.0200765"
       d="M 1.1886475,8.0275044 C 1.0941412,7.9700109 1.0228253,7.7899966 0.99454948,7.5375669 L 0.97105254,7.3277803 0.91268116,7.348078 C 0.83011795,7.3767768 0.71340172,7.337415 0.61218787,7.2466714 0.5169213,7.1612715 0.39837093,6.9242757 0.3494696,6.7214718 0.21394049,6.1594039 0.23908517,5.3323807 0.40642439,4.8482039 0.61204919,4.253255 1.078042,4.2498551 1.304199,4.8416533 1.386006,5.05572 1.4227844,5.3087819 1.4347395,5.7398323 c 0.019786,0.7137241 -0.071445,1.1721124 -0.2902079,1.4580248 -0.056428,0.073748 -0.065368,0.1013626 -0.065368,0.201932 0,0.1489962 0.046199,0.3040971 0.1077651,0.3617986 0.054111,0.050712 0.1789006,0.062785 0.2510169,0.024294 0.042197,-0.022531 0.043228,-0.019946 0.043228,0.1084625 0,0.122753 -0.00346,0.132849 -0.051561,0.1510995 -0.079509,0.030156 -0.1734063,0.023176 -0.2409644,-0.017918 z M 1.0115076,7.0639964 C 1.142163,6.9845178 1.2449254,6.7822069 1.3026195,6.4908683 1.3450583,6.2765726 1.3410096,5.4352772 1.2965834,5.2369072 1.24436,5.0037178 1.1849905,4.8662813 1.0930138,4.7656545 0.90648098,4.5615811 0.65150079,4.6243574 0.51824807,4.9071661 0.31807056,5.3320109 0.31245249,6.3943176 0.50811915,6.8215484 c 0.0531626,0.1160759 0.15141105,0.2332923 0.2192754,0.2616064 0.0734765,0.030654 0.21826548,0.020885 0.28410405,-0.019153 z"
       id="path3339" />
    <path
       style="fill:#15102d;fill-opacity:0.987261;stroke-width:0.0200765"
       d="m 5.6419715,5.8792673 c 0,-1.4103579 3.775e-4,-1.4237263 0.040201,-1.4237263 0.039786,0 0.040201,0.013365 0.040201,1.2933853 v 1.2933852 h 0.3417079 0.341708 V 7.1726521 7.3029925 H 6.0238806 5.6419715 Z"
       id="path3341" />
  </g>
</svg>
