<?xml version="1.0" encoding="UTF-8" standalone="no"?>
<!-- Created with Inkscape (http://www.inkscape.org/) -->

<svg
   width="128"
   height="128"
   viewBox="0 0 33.866666 33.866666"
   version="1.1"
   id="svg7814"
   inkscape:version="1.2 (dc2aedaf03, 2022-05-15)"
   sodipodi:docname="icon_128.svg"
   xmlns:inkscape="http://www.inkscape.org/namespaces/inkscape"
   xmlns:sodipodi="http://sodipodi.sourceforge.net/DTD/sodipodi-0.dtd"
   xmlns="http://www.w3.org/2000/svg"
   xmlns:svg="http://www.w3.org/2000/svg">
  <sodipodi:namedview
     id="namedview7816"
     pagecolor="#505050"
     bordercolor="#eeeeee"
     borderopacity="1"
     inkscape:showpageshadow="0"
     inkscape:pageopacity="0"
     inkscape:pagecheckerboard="0"
     inkscape:deskcolor="#505050"
     inkscape:document-units="mm"
     showgrid="false"
     inkscape:zoom="3.1251122"
     inkscape:cx="76.637248"
     inkscape:cy="70.237478"
     inkscape:window-width="1920"
     inkscape:window-height="1058"
     inkscape:window-x="-8"
     inkscape:window-y="-8"
     inkscape:window-maximized="1"
     inkscape:current-layer="layer1" />
  <defs
     id="defs7811" />
  <g
     inkscape:label="Calque 1"
     inkscape:groupmode="layer"
     id="layer1">
    <rect
       style="fill:#15102d;fill-opacity:0.987261;stroke:#ffffff;stroke-width:0.41462;stroke-linecap:square;stroke-dasharray:none"
       id="rect2879"
       width="33.358707"
       height="33.358707"
       x="0.42269909"
       y="0.33803472"
       ry="0.012426654" />
    <path
       id="text186"
       style="font-size:3.54239px;line-height:1.25;font-family:sans-serif;word-spacing:0px;stroke:#ffffff;stroke-width:0.183733;stroke-dasharray:none;stroke-opacity:1"
       d="m 12.029012,11.389957 v 8.162832 h 0.461579 v -1.955677 l 0.299624,-0.607395 1.097284,2.563033 h 0.607317 l -1.364524,-3.150143 1.271393,-2.708794 h -0.583027 l -1.328051,2.931529 v -5.235385 z m 10.316915,0 v 8.162832 h 0.461579 v -1.955677 l 0.299623,-0.607395 1.097285,2.563033 h 0.607316 l -1.364516,-3.150143 1.271394,-2.708794 h -0.579031 l -1.332133,2.93149 v -5.235385 z m -19.9333435,0.19032 c -0.2515927,0 -0.4864177,0.0894 -0.7004793,0.27126 -0.2124159,0.181858 -0.3906698,0.446849 -0.5344483,0.789559 -0.1503601,0.360191 -0.26577466,0.792623 -0.34412805,1.299734 -0.0784317,0.503655 -0.11745172,1.07218 -0.11745172,1.708691 0,0.647043 0.0391768,1.221271 0.11745179,1.724887 0.0800772,0.503577 0.19713708,0.929201 0.34412808,1.275438 0.1470693,0.346242 0.3253232,0.611781 0.5344482,0.793608 0.2107707,0.181858 0.4439503,0.27126 0.7004793,0.27126 0.034476,0 0.068952,-0.0011 0.1053067,-0.0078 0.03761,-0.0035 0.074437,-0.01404 0.1133779,-0.02822 0.014891,0.622519 0.1078133,1.101109 0.2794081,1.433358 0.1732391,0.335745 0.4039901,0.50209 0.6883345,0.50209 0.099666,0 0.1967452,-0.01183 0.2915528,-0.03683 0.096374,-0.02116 0.1934545,-0.05721 0.291553,-0.109296 v -0.955528 h -0.068952 c -0.039177,0.03526 -0.1052287,0.07522 -0.1983907,0.117445 -0.091517,0.04544 -0.1678323,0.06896 -0.234825,0.06896 -0.215707,0 -0.3677124,-0.111661 -0.449435,-0.331983 C 3.1487919,20.146551 3.1074997,19.838387 3.100918,19.439655 3.4081417,19.177328 3.6524474,18.717001 3.8337572,18.062986 4.0167908,17.40897 4.109091,16.604531 4.109091,15.649764 c 0,-0.643516 -0.041528,-1.217768 -0.1214473,-1.724887 C 3.9092114,13.417774 3.7962258,12.991077 3.6475112,12.641339 3.5020873,12.302069 3.3221879,12.037705 3.1130627,11.855831 2.9055046,11.670446 2.6740488,11.580497 2.4125835,11.580497 Z m 5.5795522,0.109304 v 1.024399 h 0.5183075 v -1.0244 z m 7.0250543,0.0525 v 7.810563 h 2.307946 V 18.62947 h -1.822061 v -6.887396 z m -12.6046065,0.73284 c 0.3676341,0 0.6580901,0.27745 0.8705454,0.830053 0.2124159,0.5491 0.3198385,1.330158 0.3198385,2.34438 0,1.024713 -0.1082069,1.81095 -0.323913,2.356533 -0.2140615,0.542127 -0.5037338,0.813856 -0.8664943,0.813856 -0.3627761,0 -0.6508032,-0.271729 -0.8664866,-0.813856 -0.2157069,-0.545575 -0.3239129,-1.33182 -0.3239129,-2.356533 0,-1.014222 0.1050718,-1.795303 0.3158425,-2.344388 0.212416,-0.552548 0.5036556,-0.830045 0.8745804,-0.830045 z m 18.1193835,1.056792 c -0.161805,0 -0.320152,0.0713 -0.473724,0.21461 -0.153571,0.143385 -0.301582,0.343971 -0.445361,0.599246 v -0.6519 H 19.151303 V 19.5526 h 0.461579 v -4.372948 c 0.125839,-0.206305 0.255511,-0.377272 0.392786,-0.510159 0.137283,-0.132887 0.270946,-0.198391 0.396781,-0.198391 0.122537,0 0.222838,0.03604 0.299623,0.109304 0.07679,0.06973 0.133275,0.177 0.174102,0.323912 0.03918,0.132887 0.0666,0.320936 0.08102,0.558738 0.01487,0.234355 0.02429,0.483833 0.02429,0.753133 v 3.336397 H 21.43899 V 15.75055 c 0,-0.716933 -0.07522,-1.266739 -0.230752,-1.647952 -0.155217,-0.381189 -0.380404,-0.570883 -0.67619,-0.570883 z m -9.988943,0.02429 c -0.403598,0 -0.7290781,0.272356 -0.975813,0.8179 -0.2450893,0.545574 -0.368496,1.301089 -0.368496,2.259359 0,0.514076 0.032125,0.95957 0.097157,1.344277 0.065034,0.384716 0.1560792,0.703771 0.2753338,0.955566 0.1176874,0.251828 0.2601333,0.440975 0.4251454,0.566888 0.1650128,0.122397 0.3489078,0.186245 0.5465928,0.186245 0.155218,0 0.300015,-0.04623 0.437291,-0.133595 0.138921,-0.08744 0.283718,-0.211083 0.43729,-0.368495 v -1.085137 h -0.02429 c -0.03448,0.05955 -0.07882,0.130693 -0.137666,0.21461 -0.05877,0.08047 -0.123329,0.157334 -0.190321,0.23075 -0.07679,0.08393 -0.162739,0.154049 -0.259114,0.206462 -0.09637,0.0525 -0.190322,0.07679 -0.283406,0.07679 -0.267967,0 -0.478894,-0.189146 -0.6276095,-0.566887 -0.1470694,-0.381196 -0.2186844,-0.921255 -0.2186844,-1.627712 0,-0.727433 0.076785,-1.281838 0.2267547,-1.656054 0.1520052,-0.377742 0.3580742,-0.566887 0.6194612,-0.566887 0.142133,0 0.28458,0.06425 0.433216,0.190321 0.15036,0.125913 0.296804,0.308242 0.437291,0.542597 h 0.02429 v -1.097292 c -0.125836,-0.136413 -0.26507,-0.253787 -0.417075,-0.348203 -0.150361,-0.09441 -0.300642,-0.141741 -0.457506,-0.141741 z M 4.8217542,13.69367 v 3.802035 c 0,0.727433 0.078746,1.282386 0.2388994,1.660096 0.1601547,0.374216 0.3845584,0.558739 0.6721154,0.558739 0.171594,0 0.327517,-0.06659 0.4697284,-0.206539 C 6.3446306,19.368063 6.49264,19.167 6.647858,18.904673 v 0.647826 H 7.1094378 V 13.693562 H 6.647858 v 4.376993 c -0.1225446,0.206304 -0.2546485,0.373197 -0.3967815,0.506163 -0.1404881,0.132892 -0.2694573,0.19839 -0.3887112,0.19839 -0.133984,0 -0.2374891,-0.03134 -0.3076936,-0.101239 -0.070519,-0.06974 -0.1259146,-0.182173 -0.170027,-0.336058 -0.042311,-0.150353 -0.072085,-0.332682 -0.085013,-0.54259 -0.01332,-0.213357 -0.016454,-0.468005 -0.016454,-0.765278 v -3.336389 z m 3.1987298,0 v 5.85893 h 0.4615798 v -5.858936 z m 9.758146,0 v 5.85893 h 0.46158 v -5.858936 z" />
    <rect
       style="fill:#ffff00;stroke:#ffffff;stroke-width:0;stroke-linecap:square;stroke-dasharray:none"
       id="rect1061"
       width="8.5337353"
       height="8.6869097"
       x="25.181253"
       y="10.98384"
       ry="0.0091187358" />
    <text
       xml:space="preserve"
       style="font-style:normal;font-variant:normal;font-weight:bold;font-stretch:condensed;font-size:6.87621px;line-height:1.25;font-family:Arial;-inkscape-font-specification:'Arial, Bold Condensed';font-variant-ligatures:normal;font-variant-caps:normal;font-variant-numeric:normal;font-variant-east-asian:normal;word-spacing:0px;stroke-width:2.07309"
       x="25.771334"
       y="20.446711"
       id="text1065"
       transform="scale(1.0404326,0.96113869)"><tspan
         sodipodi:role="line"
         id="tspan1063"
         x="25.771334"
         y="20.446711"
         style="font-style:normal;font-variant:normal;font-weight:bold;font-stretch:condensed;font-size:6.87621px;font-family:Arial;-inkscape-font-specification:'Arial, Bold Condensed';font-variant-ligatures:normal;font-variant-caps:normal;font-variant-numeric:normal;font-variant-east-asian:normal;stroke-width:2.07309">JS</tspan></text>
    <path
       style="fill:#15102d;fill-opacity:0.987261;stroke-width:0.0534878"
       d="M 3.2990266,21.383344 C 3.0475123,21.230006 2.8577404,20.749856 2.7825212,20.076487 l -0.062683,-0.5596 -0.1552956,0.05407 C 2.3448391,19.647737 2.0342464,19.542744 1.7649223,19.300475 1.5114491,19.072703 1.1959201,18.440516 1.0658535,17.899564 0.70519285,16.400303 0.77210664,14.194303 1.2173889,12.902812 c 0.5471416,-1.586962 1.7871936,-1.596027 2.3890025,-0.01724 0.2176656,0.570961 0.315529,1.246023 0.3473405,2.395804 0.052497,1.903783 -0.1900853,3.126488 -0.772251,3.889126 -0.1501246,0.196744 -0.1739447,0.270396 -0.1739447,0.5386 0,0.397409 0.1229364,0.811153 0.2867734,0.965064 0.144014,0.135239 0.4760751,0.167445 0.6679626,0.06502 0.1122805,-0.06033 0.1150229,-0.05329 0.1150229,0.289281 0,0.327438 -0.0094,0.354391 -0.1371961,0.403049 -0.2115542,0.08047 -0.4614231,0.0619 -0.6412441,-0.0478 z M 2.8276527,18.813289 C 3.1753067,18.601266 3.44876,18.061646 3.6023326,17.284529 3.7152398,16.712941 3.7045055,14.468845 3.5858783,13.939717 3.4468795,13.31767 3.2889191,12.951109 3.0442214,12.682702 2.5478529,12.138381 1.8693439,12.305822 1.5147557,13.06013 c -0.53272468,1.133233 -0.54761183,3.966828 -0.02664,5.106415 0.1414279,0.309654 0.4028931,0.622283 0.5834976,0.697815 0.1954917,0.0818 0.5808337,0.05564 0.7560318,-0.05093 z"
       id="path3339" />
    <path
       style="fill:#15102d;fill-opacity:0.987261;stroke-width:0.0534878"
       d="m 15.149435,15.653149 c 0,-3.761989 10e-4,-3.797648 0.106952,-3.797648 0.105856,0 0.106952,0.03604 0.106952,3.449971 v 3.449978 h 0.909298 0.909291 v 0.347654 0.347652 h -1.016265 -1.016275 z"
       id="path3341" />
  </g>
</svg>
