<?xml version="1.0" encoding="UTF-8" standalone="no"?>
<!-- Created with Inkscape (http://www.inkscape.org/) -->

<svg
   width="16"
   height="16"
   viewBox="0 0 16 16"
   version="1.1"
   id="svg5"
   xml:space="preserve"
   inkscape:version="1.2 (dc2aedaf03, 2022-05-15)"
   sodipodi:docname="icon_16.svg"
   xmlns:inkscape="http://www.inkscape.org/namespaces/inkscape"
   xmlns:sodipodi="http://sodipodi.sourceforge.net/DTD/sodipodi-0.dtd"
   xmlns="http://www.w3.org/2000/svg"
   xmlns:svg="http://www.w3.org/2000/svg"><sodipodi:namedview
     id="namedview7"
     pagecolor="#505050"
     bordercolor="#eeeeee"
     borderopacity="1"
     inkscape:showpageshadow="0"
     inkscape:pageopacity="0"
     inkscape:pagecheckerboard="0"
     inkscape:deskcolor="#505050"
     inkscape:document-units="px"
     showgrid="false"
     inkscape:zoom="38.75829"
     inkscape:cx="11.713623"
     inkscape:cy="2.3349843"
     inkscape:window-width="1920"
     inkscape:window-height="1058"
     inkscape:window-x="-8"
     inkscape:window-y="-8"
     inkscape:window-maximized="1"
     inkscape:current-layer="layer1" /><defs
     id="defs2" /><g
     inkscape:label="Calque 1"
     inkscape:groupmode="layer"
     id="layer1"><rect
       style="fill:#15102d;fill-opacity:0.98726118;stroke:#ffffff;stroke-width:0.2;stroke-linecap:square;stroke-dasharray:none"
       id="rect2879"
       width="16.091221"
       height="16.091221"
       x="-0.072976053"
       y="-0.072976053"
       ry="0.005994238" /><path
       id="text186"
       style="font-size:3.54239px;line-height:1.25;font-family:sans-serif;word-spacing:0px;stroke-width:0.0886277;stroke-dasharray:none;stroke:#ffffff;stroke-opacity:1"
       d="M 5.5255576,5.2581317 V 9.1956318 H 5.7482139 V 8.2522724 L 5.8927451,7.9593036 6.422042,9.1956318 H 6.7150108 L 6.0568076,7.6761005 6.6700889,6.3694599 h -0.28125 L 5.7482139,7.7835223 V 5.2581317 Z m 4.9765624,0 v 3.9375001 h 0.222656 V 8.2522724 l 0.144532,-0.2929688 0.529296,1.2363282 h 0.292969 L 11.03337,7.6761005 11.646652,6.3694599 H 11.367355 L 10.724776,7.7835223 V 5.2581317 Z m -9.61523429,0.091797 c -0.12138172,0 -0.23463732,0.043136 -0.33789062,0.1308587 -0.1024651,0.087724 -0.1884515,0.2155331 -0.2578125,0.3808594 -0.072514,0.1737613 -0.1281823,0.3823376 -0.1660156,0.6269531 -0.037833,0.2429286 -0.056641,0.5171841 -0.056641,0.8242188 0,0.3120955 0.018807,0.5891028 0.056641,0.8320312 0.038622,0.2429285 0.095078,0.448221 0.1660156,0.6152344 0.070937,0.1670133 0.1569238,0.2950882 0.2578125,0.3828125 0.1016769,0.087724 0.2141443,0.1308587 0.33789062,0.1308587 0.0165524,0 0.0334411,-5.322e-4 0.0507816,-0.00391 0.0181286,-0.00168 0.0357705,-0.00692 0.0546873,-0.013679 0.007094,0.3002866 0.0520051,0.5311409 0.13476559,0.6914063 0.083548,0.1619522 0.1948857,0.2421872 0.3320313,0.2421872 0.04808,0 0.09491,-0.0058 0.140625,-0.01758 0.046503,-0.01012 0.093333,-0.02743 0.140625,-0.05274 V 9.6585223 h -0.033203 c -0.018917,0.01687 -0.050776,0.036396 -0.095703,0.056641 -0.044139,0.02193 -0.080965,0.033203 -0.1132813,0.033203 -0.1040415,0 -0.1773872,-0.053875 -0.2167968,-0.1601563 C 1.2420074,9.4819295 1.2220702,9.3332629 1.218917,9.1409444 1.3670972,9.0144191 1.4849431,8.7923517 1.5724325,8.4768819 1.6607101,8.1614122 1.705245,7.7733713 1.705245,7.3128195 1.705245,7.0024109 1.6852729,6.7254037 1.6466513,6.4807881 1.6088181,6.2361725 1.5543144,6.0303478 1.4825888,5.8616474 1.4124397,5.698008 1.325665,5.5704652 1.2247764,5.4827412 1.1246758,5.3933299 1.0129967,5.3499287 0.88688571,5.3499287 Z M 3.578292,5.4026637 v 0.49414 h 0.25 V 5.4026631 Z m 3.3886718,0.02539 v 3.7675782 h 1.113281 V 8.7503193 H 7.2013392 V 5.4280536 Z M 0.88688571,5.7815693 c 0.17734359,0 0.31745679,0.1338432 0.41992189,0.4003907 0.1024651,0.2648594 0.1542969,0.6416283 0.1542969,1.1308594 0,0.4942918 -0.052208,0.8735462 -0.15625,1.1367187 -0.1032533,0.2614855 -0.2429899,0.3925781 -0.41796879,0.3925781 -0.17497882,0 -0.31392722,-0.1310927 -0.41796872,-0.3925781 -0.1040415,-0.2631728 -0.15625,-0.6424271 -0.15625,-1.136719 0,-0.4892311 0.050667,-0.866 0.1523438,-1.1308594 C 0.56747589,5.9154131 0.70796599,5.781569 0.88688571,5.7815693 Z M 9.6271204,6.2913348 c -0.078031,0 -0.1544255,0.034348 -0.2285161,0.1035154 -0.07409,0.069167 -0.1454821,0.1659113 -0.2148435,0.2890625 V 6.3694599 H 8.9611046 V 9.1956318 H 9.1837608 V 7.0862567 C 9.2444518,6.9867237 9.3070056,6.9042691 9.3732138,6.840163 9.4394208,6.776056 9.5039289,6.74446 9.5646203,6.74446 c 0.059112,0 0.107486,0.017307 0.1445313,0.052735 0.037047,0.033739 0.064279,0.085396 0.083984,0.1562499 0.018913,0.064107 0.031969,0.1548151 0.039064,0.2695314 0.0071,0.1130292 0.011716,0.2333819 0.011716,0.3632811 V 9.1956325 H 10.064618 V 7.3616474 c 0,-0.3458357 -0.03645,-0.6110384 -0.1113282,-0.7949219 C 9.8784138,6.3828422 9.7697802,6.2913348 9.6271183,6.2913348 Z m -4.8183597,0.011719 c -0.1946837,0 -0.3516859,0.131359 -0.4707031,0.3945314 -0.1182289,0.2631725 -0.1777344,0.6276047 -0.1777344,1.0898437 0,0.2479894 0.015347,0.4628672 0.046875,0.6484374 0.031528,0.1855705 0.075274,0.3394733 0.1328125,0.4609376 0.05675,0.1214648 0.1254707,0.2127053 0.2050781,0.2734375 0.079607,0.059045 0.1683005,0.089844 0.2636718,0.089844 0.074878,0 0.1447293,-0.022278 0.2109376,-0.064454 C 5.0866942,9.1534564 5.1565456,9.0938116 5.2306356,9.017897 V 8.4944599 h -0.011718 c -0.016552,0.028679 -0.038031,0.063027 -0.066406,0.1035154 -0.028375,0.038801 -0.059481,0.075901 -0.091797,0.1113277 -0.037045,0.040488 -0.078497,0.074304 -0.125,0.099609 -0.046504,0.025306 -0.091792,0.037109 -0.1367192,0.037109 -0.1292637,0 -0.2310088,-0.091241 -0.3027344,-0.2734374 C 4.4253231,8.3887027 4.390792,8.1282031 4.390792,7.7874287 4.390792,7.4365319 4.427653,7.1691098 4.500167,6.9886005 4.573469,6.8064042 4.6728842,6.715163 4.7989951,6.715163 c 0.068573,0 0.1372588,0.031065 0.2089844,0.091797 0.072514,0.060732 0.1431529,0.1486895 0.2109375,0.2617187 h 0.011718 V 6.5393818 C 5.1699452,6.4735886 5.1027658,6.4169622 5.0294639,6.371413 4.9569501,6.3258639 4.8844273,6.3030537 4.8087607,6.3030538 Z m -2.7597656,0.066407 v 1.8339843 c 0,0.3508968 0.037991,0.6185849 0.1152344,0.8007813 0.077243,0.1805094 0.1854967,0.2695312 0.3242187,0.2695312 0.08276,0 0.1579897,-0.032129 0.2265625,-0.099609 C 2.7835835,9.106667 2.8549761,9.009657 2.9298545,8.8831318 v 0.3125 H 3.1525108 V 6.3694599 H 2.9298545 v 2.111328 c -0.059114,0.099533 -0.1228334,0.1800345 -0.1914062,0.2441407 -0.067785,0.064106 -0.129962,0.095703 -0.1875,0.095703 -0.064632,0 -0.1145453,-0.015088 -0.1484375,-0.048829 -0.033892,-0.03374 -0.06075,-0.087882 -0.082031,-0.1621093 -0.020493,-0.072541 -0.03471,-0.1604986 -0.041015,-0.2617187 -0.0063,-0.1029068 -0.00781,-0.2257454 -0.00781,-0.3691407 v -1.609375 z m 1.5429688,0 v 2.826171 H 3.8146201 V 6.3694599 Z m 4.7070314,0 v 2.826171 H 8.5216515 V 6.3694599 Z" /><rect
       style="fill:#ffff00;stroke:#ffffff;stroke-width:0;stroke-linecap:square;stroke-dasharray:none"
       id="rect1061"
       width="4.1164131"
       height="4.1903"
       x="11.869792"
       y="5.0622315"
       ry="0.0043985993" /><text
       xml:space="preserve"
       style="font-style:normal;font-variant:normal;font-weight:bold;font-stretch:condensed;font-size:3.31687px;line-height:1.25;font-family:Arial;-inkscape-font-specification:'Arial, Bold Condensed';font-variant-ligatures:normal;font-variant-caps:normal;font-variant-numeric:normal;font-variant-east-asian:normal;word-spacing:0px"
       x="12.165192"
       y="9.6172905"
       id="text1065"
       transform="scale(1.0404326,0.96113866)"><tspan
         sodipodi:role="line"
         id="tspan1063"
         x="12.165192"
         y="9.6172905"
         style="font-style:normal;font-variant:normal;font-weight:bold;font-stretch:condensed;font-size:3.31687px;font-family:Arial;-inkscape-font-specification:'Arial, Bold Condensed';font-variant-ligatures:normal;font-variant-caps:normal;font-variant-numeric:normal;font-variant-east-asian:normal">JS</tspan></text><path
       style="fill:#15102d;fill-opacity:0.987261;stroke-width:0.0258009"
       d="M 1.3144774,10.078636 C 1.1931693,10.004661 1.1016284,9.7730422 1.0653335,9.4482483 L 1.0351699,9.1783205 0.96024439,9.2044398 C 0.85426621,9.2413839 0.70444869,9.1907039 0.57453215,9.0739614 0.45225116,8.9640804 0.30008019,8.6591451 0.23731058,8.3982032 0.06334552,7.6750072 0.0956213,6.6109013 0.31041756,5.9879256 0.57435585,5.2224228 1.1725043,5.2180482 1.462799,5.9794976 c 0.1050058,0.2754325 0.1522161,0.60104 0.1675607,1.1556597 0.025407,0.9183274 -0.091707,1.5081218 -0.3725123,1.8759971 -0.072432,0.09489 -0.083905,0.1304191 -0.083905,0.2598208 0,0.1917107 0.0593,0.3912727 0.1383274,0.4655154 0.069456,0.065251 0.2296355,0.080782 0.3222027,0.031242 0.054163,-0.028987 0.055489,-0.025653 0.055489,0.1395559 0,0.1579415 -0.00442,0.1709345 -0.066182,0.1944145 -0.1020575,0.0388 -0.2225854,0.02981 -0.3093016,-0.02307 z M 1.0871008,8.8389193 C 1.2548106,8.7366549 1.3867143,8.4763478 1.4607726,8.1014925 1.515247,7.8257631 1.5100497,6.7432951 1.453026,6.4880586 1.3859931,6.1880213 1.3097869,6.0111852 1.1917254,5.8817118 0.95229399,5.6191367 0.62500037,5.699911 0.45395754,6.063789 0.19700876,6.610424 0.1897986,7.9772621 0.44096411,8.5269672 0.50920458,8.6763192 0.63531543,8.8271357 0.72242608,8.8635684 0.8167394,8.9030134 1.00259,8.8904515 1.0871008,8.8389193 Z"
       id="path3339" /><path
       style="fill:#15102d;fill-opacity:0.987261;stroke-width:0.0258009"
       d="m 7.0307539,7.3145641 c 0,-1.8146655 4.845e-4,-1.8318661 0.051602,-1.8318661 0.051069,0 0.051602,0.017201 0.051602,1.66416 v 1.6641601 h 0.4386158 0.4386159 v 0.1677061 0.167706 H 7.5209716 7.0307539 Z"
       id="path3341" /></g></svg>
