<?xml version="1.0" encoding="UTF-8" standalone="no"?>
<!-- Created with Inkscape (http://www.inkscape.org/) -->

<svg
   width="32"
   height="32"
   viewBox="0 0 8.4666665 8.4666666"
   version="1.1"
   id="svg3477"
   inkscape:version="1.2 (dc2aedaf03, 2022-05-15)"
   sodipodi:docname="icon_32.svg"
   xmlns:inkscape="http://www.inkscape.org/namespaces/inkscape"
   xmlns:sodipodi="http://sodipodi.sourceforge.net/DTD/sodipodi-0.dtd"
   xmlns="http://www.w3.org/2000/svg"
   xmlns:svg="http://www.w3.org/2000/svg">
  <sodipodi:namedview
     id="namedview3479"
     pagecolor="#505050"
     bordercolor="#eeeeee"
     borderopacity="1"
     inkscape:showpageshadow="0"
     inkscape:pageopacity="0"
     inkscape:pagecheckerboard="0"
     inkscape:deskcolor="#505050"
     inkscape:document-units="mm"
     showgrid="false"
     inkscape:zoom="8.8391522"
     inkscape:cx="16.121456"
     inkscape:cy="24.832698"
     inkscape:window-width="1920"
     inkscape:window-height="1058"
     inkscape:window-x="-8"
     inkscape:window-y="-8"
     inkscape:window-maximized="1"
     inkscape:current-layer="layer1" />
  <defs
     id="defs3474" />
  <g
     inkscape:label="Calque 1"
     inkscape:groupmode="layer"
     id="layer1">
    <rect
       style="fill:#15102d;fill-opacity:0.987261;stroke:#ffffff;stroke-width:0.103922;stroke-linecap:square;stroke-dasharray:none"
       id="rect2879"
       width="8.388546"
       height="8.3338156"
       x="0.034524649"
       y="0.055690594"
       ry="0.0031044798" />
    <path
       id="text186"
       style="font-size:3.54239px;line-height:1.25;font-family:sans-serif;word-spacing:0px;stroke:#ffffff;stroke-width:0.0460517;stroke-dasharray:none;stroke-opacity:1"
       d="M 2.9531073,2.8167284 V 4.856002 H 3.0691808 V 4.367426 L 3.1445275,4.2156935 3.4204564,4.8560012 H 3.5731851 L 3.2300542,4.0690203 3.5497651,3.3922974 H 3.4031462 L 3.0691808,4.1246551 V 2.8167284 Z m 2.5943415,0 V 4.856002 H 5.6635217 V 4.367426 l 0.075347,-0.1517325 0.2759285,0.6403077 h 0.152729 L 5.8243958,4.0690203 6.1441072,3.3922974 H 5.9985062 L 5.663522,4.1246551 V 2.8167284 Z m -5.01253665,0.047543 c -0.0632785,0 -0.122319,0.022342 -0.17614599,0.067772 -0.0534152,0.045433 -0.0982418,0.1116263 -0.13440096,0.1972511 -0.0378024,0.089992 -0.0668231,0.1980168 -0.086546,0.3247058 -0.0197228,0.1258153 -0.029527,0.267855 -0.029527,0.4268717 0,0.161637 0.009812,0.3051026 0.029527,0.4309178 0.0201346,0.1258154 0.0495653,0.2321384 0.086546,0.3186367 0.0369809,0.086499 0.0818054,0.1528283 0.13440096,0.1982626 0.0530053,0.045434 0.111636,0.067773 0.17614599,0.067773 0.00863,0 0.0174373,-2.755e-4 0.0264732,-0.00201 0.009457,-8.701e-4 0.0186392,-0.00359 0.0285084,-0.00707 0.003704,0.155522 0.0271114,0.2750835 0.0702554,0.3580867 0.0435537,0.083876 0.1015972,0.1254318 0.17309202,0.1254318 0.0250643,0 0.0494785,-0.003 0.0733095,-0.00911 0.0242428,-0.00523 0.0486549,-0.014211 0.0733095,-0.027314 V 5.0957379 h -0.0172992 c -0.009871,0.00874 -0.0264692,0.01885 -0.0498922,0.029334 -0.0230094,0.011349 -0.0422079,0.017185 -0.0590543,0.017185 -0.0542388,0 -0.0924747,-0.027902 -0.11301911,-0.082947 C 0.72005066,5.0042669 0.70965736,4.9272708 0.70801206,4.8276677 0.78526016,4.7621367 0.8466945,4.6471274 0.8923033,4.4837425 0.9383239,4.3203574 0.9615401,4.1193869 0.9615401,3.8808622 0.9615401,3.7200981 0.9511372,3.5766333 0.9309944,3.4499442 0.91127148,3.3232559 0.88285761,3.2166566 0.84546697,3.129285 0.80889796,3.0445348 0.76366154,2.9784785 0.71106602,2.9330453 0.65888226,2.8867378 0.60066347,2.8642603 0.53492003,2.8642603 Z M 1.9379744,2.8915835 V 3.1475039 H 2.0683028 V 2.8915828 Z m 1.7665552,0.013153 V 4.8560016 H 4.2848964 V 4.6253698 H 3.8267123 V 2.9047329 Z M 0.53491215,3.0878264 c 0.092451,0 0.16549447,0.069319 0.21891024,0.2073666 0.0534171,0.1371727 0.080436,0.3323061 0.080436,0.5856841 0,0.2559991 -0.0272159,0.4524189 -0.0814546,0.5887188 -0.053827,0.1354267 -0.12667339,0.2033204 -0.21789198,0.2033204 -0.0912176,0 -0.16365421,-0.067893 -0.2178922,-0.2033204 C 0.26278088,4.333296 0.235565,4.1368761 0.235565,3.8808768 c 0,-0.253378 0.026414,-0.4485104 0.0794193,-0.585684 C 0.36840138,3.157145 0.44163987,3.0878262 0.53491215,3.0878264 Z M 5.0913012,3.3518353 c -0.040679,0 -0.080504,0.017793 -0.1191286,0.05361 -0.038624,0.035822 -0.075841,0.085926 -0.1120002,0.1497083 V 3.3922961 h -0.116073 v 1.4637047 h 0.116073 V 3.7635339 c 0.031639,-0.05155 0.064249,-0.094254 0.098765,-0.1274533 0.034514,-0.033203 0.068142,-0.049565 0.099782,-0.049565 0.030816,0 0.056033,0.00898 0.075347,0.027313 0.019309,0.01748 0.033508,0.044227 0.043782,0.080924 0.00986,0.033203 0.016669,0.080179 0.020366,0.1395922 0.0037,0.058539 0.00611,0.1208711 0.00611,0.188147 V 4.8560044 H 5.3193743 V 3.9061618 c 0,-0.1791113 -0.018994,-0.3164634 -0.058037,-0.4116987 C 5.2223033,3.399227 5.1656706,3.3518349 5.0912991,3.3518349 Z m -2.5118688,0.00607 c -0.1014908,0 -0.1833375,0.06803 -0.2453831,0.2043319 -0.061634,0.1362995 -0.092655,0.3250429 -0.092655,0.5644415 0,0.1284371 0.008,0.2397239 0.024435,0.3358326 0.016432,0.09611 0.03924,0.175817 0.069237,0.2387245 0.029585,0.062908 0.065407,0.1101619 0.1069093,0.1416162 0.0415,0.030579 0.087739,0.046531 0.1374549,0.046531 0.039033,0 0.075449,-0.011533 0.1099652,-0.033381 C 2.7243217,4.83416 2.7607377,4.803268 2.7993608,4.76395 V 4.4928575 h -0.00611 c -0.00863,0.014857 -0.019825,0.032643 -0.034619,0.05361 -0.014797,0.020097 -0.031009,0.039309 -0.047854,0.057659 -0.019309,0.020967 -0.040921,0.038484 -0.065164,0.05159 -0.024242,0.013109 -0.047852,0.019222 -0.071274,0.019222 -0.067387,0 -0.1204272,-0.047254 -0.157818,-0.1416161 -0.036981,-0.095235 -0.054982,-0.2301494 -0.054982,-0.4066401 0,-0.1817324 0.019211,-0.3202341 0.057019,-0.4137216 0.038213,-0.094361 0.09004,-0.1416163 0.1557827,-0.1416163 0.035747,0 0.071554,0.01609 0.108947,0.047542 0.037802,0.031454 0.074628,0.077009 0.1099651,0.1355461 h 0.00611 V 3.4803016 C 2.767722,3.4462269 2.7327014,3.4168991 2.6944877,3.3933085 2.6566859,3.369718 2.6188782,3.357904 2.5794324,3.357904 Z m -1.4386988,0.034391 v 0.94984 c 0,0.1817344 0.019805,0.3203719 0.060073,0.4147334 0.040266,0.093488 0.096701,0.139594 0.1690193,0.139594 0.043143,0 0.082364,-0.016638 0.1181105,-0.051588 0.035747,-0.034952 0.072966,-0.085193 0.112,-0.1507203 v 0.161844 H 1.7160088 V 3.3922962 H 1.5999364 v 1.0934795 c -0.030818,0.05155 -0.064034,0.093241 -0.099782,0.1264433 -0.035339,0.0332 -0.067752,0.049565 -0.097744,0.049565 -0.033694,0 -0.059715,-0.00782 -0.077384,-0.025289 C 1.3073534,4.619015 1.2933564,4.59098 1.2822634,4.552537 1.2715854,4.514966 1.2641764,4.469413 1.2608824,4.416991 1.2575924,4.363695 1.2568024,4.3000736 1.2568024,4.2258081 V 3.3922964 Z m 0.8043681,0 V 4.8560004 H 2.0611746 V 3.3922957 Z m 2.4538319,0 V 4.8560004 H 4.5150064 V 3.3922957 Z" />
    <rect
       style="fill:#ffff00;stroke:#ffffff;stroke-width:0;stroke-linecap:square;stroke-dasharray:none"
       id="rect1061"
       width="2.1459355"
       height="2.1702008"
       x="6.2604327"
       y="2.7152693"
       ry="0.0022780818" />
    <text
       xml:space="preserve"
       style="font-style:normal;font-variant:normal;font-weight:bold;font-stretch:condensed;font-size:1.72348px;line-height:1.25;font-family:Arial;-inkscape-font-specification:'Arial, Bold Condensed';font-variant-ligatures:normal;font-variant-caps:normal;font-variant-numeric:normal;font-variant-east-asian:normal;word-spacing:0px;stroke-width:0.519608"
       x="6.3906584"
       y="5.094811"
       id="text1065"
       transform="scale(1.0438434,0.95799806)"><tspan
         sodipodi:role="line"
         id="tspan1063"
         x="6.3906584"
         y="5.094811"
         style="font-style:normal;font-variant:normal;font-weight:bold;font-stretch:condensed;font-size:1.72348px;font-family:Arial;-inkscape-font-specification:'Arial, Bold Condensed';font-variant-ligatures:normal;font-variant-caps:normal;font-variant-numeric:normal;font-variant-east-asian:normal;stroke-width:0.519608">JS</tspan></text>
    <path
       style="fill:#15102d;fill-opacity:0.987261;stroke-width:0.0134064"
       d="M 0.75782074,5.3133192 C 0.69458138,5.2750068 0.64686001,5.1550489 0.6279391,4.9868348 L 0.612216,4.847037 0.57315652,4.860563 C 0.51790716,4.8796974 0.43980553,4.8534497 0.37207838,4.7929875 0.30833187,4.7360789 0.22900333,4.5781496 0.19628075,4.4430051 c -0.09069,-0.374551 -0.0738643,-0.9256628 0.0381116,-1.2483086 0.13759484,-0.3964622 0.44941618,-0.3987276 0.6007502,-0.00436 0.0547412,0.1426497 0.0793524,0.3112853 0.0873519,0.5985285 0.0132404,0.4756115 -0.0478076,0.7810726 -0.19419602,0.971599 -0.037759,0.049143 -0.0437409,0.067546 -0.0437409,0.1345634 0,0.099289 0.0309141,0.2026443 0.0721116,0.2410955 0.0362085,0.033793 0.11971227,0.041839 0.16796722,0.016188 0.0282366,-0.015014 0.0289262,-0.01329 0.0289262,0.072278 0,0.0818 -0.002305,0.088528 -0.0345022,0.1006898 -0.0532043,0.020096 -0.11603564,0.015445 -0.16124253,-0.01194 z M 0.63928672,4.6712567 C 0.72671541,4.6182938 0.79547934,4.4834777 0.83408565,4.2893356 0.86248377,4.1465331 0.85977459,3.5859105 0.83004651,3.4537205 0.79510103,3.298328 0.75537362,3.2067429 0.69382695,3.1396873 0.56900762,3.0036968 0.39838641,3.0455297 0.30921969,3.2339879 0.17526993,3.517096 0.17151058,4.224996 0.30244173,4.5096941 c 0.035574,0.077351 0.1013174,0.1554613 0.14672922,0.1743292 0.0491672,0.020429 0.1460534,0.013917 0.19010958,-0.012768 z"
       id="path3339" />
    <path
       style="fill:#15102d;fill-opacity:0.987261;stroke-width:0.0134064"
       d="m 3.7377842,3.8817767 c 0,-0.9398346 2.526e-4,-0.948743 0.0269,-0.948743 0.026624,0 0.026901,0.00891 0.026901,0.8618864 V 4.6568063 H 4.0202403 4.248896 v 0.086857 0.086857 H 3.9933405 3.7377842 Z"
       id="path3341" />
  </g>
</svg>
